<svg width="10" height="6" viewBox="0 0 10 6" fill="none" xmlns="http://www.w3.org/2000/svg">
                                        <path fill-rule="evenodd" clip-rule="evenodd" d="M0.437342 0.433541C0.703005 0.163178 1.13373 0.163178 1.39939 0.433541L5 4.09785L8.60061 0.433541C8.86627 0.163178 9.297 0.163178 9.56266 0.433541C9.82832 0.703904 9.82832 1.14225 9.56266 1.41261L5.48102 5.56646C5.21536 5.83682 4.78464 5.83682 4.51898 5.56646L0.437342 1.41261C0.17168 1.14225 0.17168 0.703904 0.437342 0.433541Z" fill="#B4B1BE"></path>
                                        <path fill-rule="evenodd" clip-rule="evenodd" d="M0.264929 0.27439C0.624422 -0.0914634 1.21231 -0.0914634 1.57181 0.27439L5 3.76324L8.42819 0.27439C8.78769 -0.0914634 9.37558 -0.0914634 9.73507 0.27439C10.0883 0.633878 10.0883 1.21228 9.73507 1.57176L5.65344 5.72561C5.29395 6.09146 4.70605 6.09146 4.34656 5.72561L0.264929 1.57176C-0.0883095 1.21228 -0.0883095 0.633878 0.264929 0.27439ZM1.22698 0.592693C1.05515 0.41782 0.781588 0.41782 0.609756 0.592693C0.431669 0.773931 0.431669 1.07222 0.609756 1.25346L4.69139 5.40731C4.86322 5.58218 5.13678 5.58218 5.30861 5.40731L9.39024 1.25346C9.56833 1.07222 9.56833 0.773931 9.39024 0.592693C9.21841 0.417821 8.94485 0.41782 8.77302 0.592693L5.17241 4.257C5.12747 4.30274 5.06516 4.32862 5 4.32862C4.93484 4.32862 4.87252 4.30274 4.82759 4.257L1.22698 0.592693Z" fill="#B4B1BE"></path>
                                    </svg>