<svg width="36" height="36" viewBox="0 0 36 36" fill="none" xmlns="http://www.w3.org/2000/svg">
                                <circle cx="18" cy="18" r="17.5" stroke="#E7E7EB"></circle>
                                <path d="M26.7188 18.25C26.7188 13.4336 22.8164 9.53125 18 9.53125C13.1836 9.53125 9.28125 13.4336 9.28125 18.25C9.28125 21.9766 11.5664 25.1055 14.8008 26.3711C14.7305 25.7031 14.6602 24.6484 14.8359 23.875C15.0117 23.207 15.8555 19.5508 15.8555 19.5508C15.8555 19.5508 15.6094 19.0234 15.6094 18.25C15.6094 17.0547 16.3125 16.1406 17.1914 16.1406C17.9297 16.1406 18.2812 16.7031 18.2812 17.3711C18.2812 18.1094 17.7891 19.2344 17.543 20.2891C17.3672 21.1328 18 21.8359 18.8438 21.8359C20.3906 21.8359 21.5859 20.2188 21.5859 17.8633C21.5859 15.7539 20.0742 14.3125 17.9648 14.3125C15.4688 14.3125 14.0273 16.1758 14.0273 18.0742C14.0273 18.8477 14.3086 19.6562 14.6602 20.0781C14.7305 20.1484 14.7305 20.2539 14.7305 20.3242C14.6602 20.6055 14.4844 21.2031 14.4844 21.3086C14.4492 21.4844 14.3438 21.5195 14.168 21.4492C13.0781 20.9219 12.4102 19.3398 12.4102 18.0391C12.4102 15.2969 14.4141 12.7656 18.1758 12.7656C21.1992 12.7656 23.5547 14.9453 23.5547 17.8281C23.5547 20.8164 21.6562 23.2422 19.0195 23.2422C18.1406 23.2422 17.2969 22.7852 17.0156 22.2227C17.0156 22.2227 16.5938 23.9102 16.4883 24.2969C16.2773 25.0703 15.75 26.0195 15.3984 26.582C16.207 26.8633 17.0859 26.9688 18 26.9688C22.8164 26.9688 26.7188 23.0664 26.7188 18.25Z" fill="#022C3B"></path>
                            </svg>