<svg width="36" height="36" viewBox="0 0 36 36" fill="none" xmlns="http://www.w3.org/2000/svg">
                                <circle cx="18" cy="18" r="17.5" stroke="#E7E7EB"></circle>
                                <path d="M26.7188 18.25C26.7188 13.4336 22.8164 9.53125 18 9.53125C13.1836 9.53125 9.28125 13.4336 9.28125 18.25C9.28125 22.6094 12.4453 26.2305 16.6289 26.8633V20.7812H14.4141V18.25H16.6289V16.3516C16.6289 14.1719 17.9297 12.9414 19.8984 12.9414C20.8828 12.9414 21.8672 13.1172 21.8672 13.1172V15.2617H20.7773C19.6875 15.2617 19.3359 15.9297 19.3359 16.6328V18.25H21.7617L21.375 20.7812H19.3359V26.8633C23.5195 26.2305 26.7188 22.6094 26.7188 18.25Z" fill="#022C3B"></path>
                            </svg>