<svg width="36" height="36" viewBox="0 0 36 36" fill="none" xmlns="http://www.w3.org/2000/svg">
                                <circle cx="18" cy="18" r="17.5" stroke="#E7E7EB"></circle>
                                <path d="M27.3008 13.6445C27.0898 12.8008 26.4219 12.1328 25.6133 11.9219C24.1016 11.5 18.125 11.5 18.125 11.5C18.125 11.5 12.1133 11.5 10.6016 11.9219C9.79297 12.1328 9.125 12.8008 8.91406 13.6445C8.49219 15.1211 8.49219 18.2852 8.49219 18.2852C8.49219 18.2852 8.49219 21.4141 8.91406 22.9258C9.125 23.7695 9.79297 24.4023 10.6016 24.6133C12.1133 25 18.125 25 18.125 25C18.125 25 24.1016 25 25.6133 24.6133C26.4219 24.4023 27.0898 23.7695 27.3008 22.9258C27.7227 21.4141 27.7227 18.2852 27.7227 18.2852C27.7227 18.2852 27.7227 15.1211 27.3008 13.6445ZM16.1562 21.1328V15.4375L21.1484 18.2852L16.1562 21.1328Z" fill="#022C3B"></path>
                            </svg>