<svg class="trustpilot" width="100" height="30" viewBox="0 0 122 30" fill="none" xmlns="http://www.w3.org/2000/svg">
                        <path d="M32.7576 10.5271H44.9907V12.8059H40.174V25.6521H37.5339V12.8059H32.7374L32.7576 10.5271ZM44.4667 14.7016H46.7239V16.8191H46.7642C46.8448 16.5166 46.9859 16.2343 47.1874 15.9519C47.389 15.6696 47.6308 15.4074 47.9331 15.1856C48.2152 14.9436 48.5377 14.7621 48.9005 14.6209C49.2431 14.4798 49.6058 14.3991 49.9686 14.3991C50.2507 14.3991 50.4523 14.4193 50.553 14.4193C50.6538 14.4394 50.7747 14.4596 50.8755 14.4596V16.7788C50.7143 16.7384 50.5329 16.7183 50.3515 16.6981C50.1701 16.6779 50.0089 16.6578 49.8275 16.6578C49.4244 16.6578 49.0415 16.7384 48.6788 16.8998C48.316 17.0611 48.0137 17.3031 47.7316 17.6056C47.4696 17.9283 47.2479 18.3114 47.0867 18.7753C46.9254 19.2391 46.8448 19.7836 46.8448 20.3886V25.5916H44.4264L44.4667 14.7016ZM61.9599 25.6521H59.5818V24.1194H59.5415C59.2392 24.6841 58.7958 25.1076 58.2113 25.4504C57.6269 25.7933 57.0223 25.9546 56.4177 25.9546C54.9868 25.9546 53.9388 25.6118 53.2939 24.8858C52.649 24.1799 52.3265 23.0909 52.3265 21.6591V14.7016H54.7449V21.4171C54.7449 22.3851 54.9263 23.0708 55.3092 23.4539C55.672 23.8573 56.196 24.0589 56.861 24.0589C57.3649 24.0589 57.7881 23.9783 58.1307 23.8169C58.4733 23.6556 58.7555 23.4539 58.957 23.1918C59.1787 22.9296 59.3198 22.6069 59.4205 22.2439C59.5213 21.8809 59.5616 21.4776 59.5616 21.0541V14.7016H61.98V25.6521H61.9599ZM66.0712 22.1431C66.1518 22.8489 66.4138 23.3329 66.8773 23.6354C67.3408 23.9178 67.9051 24.0589 68.55 24.0589C68.7717 24.0589 69.0337 24.0388 69.3159 23.9984C69.598 23.9581 69.8802 23.8976 70.122 23.7968C70.384 23.6959 70.5855 23.5548 70.7468 23.3531C70.908 23.1514 70.9886 22.9094 70.9684 22.6069C70.9483 22.3044 70.8475 22.0423 70.6258 21.8406C70.4041 21.6389 70.1421 21.4978 69.8197 21.3566C69.4972 21.2356 69.1143 21.1348 68.6911 21.0541C68.2679 20.9734 67.8447 20.8726 67.4013 20.7718C66.9579 20.6709 66.5145 20.5499 66.0913 20.4088C65.6681 20.2676 65.3053 20.0861 64.9627 19.8239C64.6403 19.5819 64.3581 19.2794 64.1767 18.8963C63.9752 18.5131 63.8744 18.0694 63.8744 17.5048C63.8744 16.8998 64.0155 16.4158 64.3178 16.0124C64.6 15.6091 64.9829 15.2864 65.4262 15.0444C65.8696 14.8024 66.3735 14.6209 66.9176 14.5201C67.4617 14.4193 67.9857 14.3789 68.4694 14.3789C69.0337 14.3789 69.5779 14.4394 70.0817 14.5604C70.5855 14.6814 71.0692 14.8629 71.4723 15.1453C71.8955 15.4074 72.2381 15.7704 72.5001 16.1939C72.7822 16.6174 72.9435 17.1418 73.0241 17.7468H70.5049C70.384 17.1619 70.122 16.7788 69.7189 16.5771C69.2957 16.3754 68.8322 16.2746 68.288 16.2746C68.1268 16.2746 67.9051 16.2948 67.6834 16.3149C67.4416 16.3553 67.2401 16.3956 67.0184 16.4763C66.8168 16.5569 66.6355 16.6779 66.4944 16.8191C66.3533 16.9603 66.2727 17.1619 66.2727 17.4039C66.2727 17.7064 66.3735 17.9283 66.575 18.1098C66.7765 18.2913 67.0385 18.4324 67.3811 18.5736C67.7036 18.6946 68.0865 18.7954 68.5097 18.8761C68.9329 18.9568 69.3763 19.0576 69.8197 19.1584C70.2631 19.2593 70.6863 19.3803 71.1095 19.5214C71.5327 19.6626 71.9156 19.8441 72.2381 20.1063C72.5606 20.3483 72.8427 20.6508 73.0442 21.0138C73.2458 21.3768 73.3465 21.8406 73.3465 22.3649C73.3465 23.0103 73.2055 23.5548 72.9032 24.0186C72.6009 24.4623 72.218 24.8454 71.7544 25.1278C71.2909 25.4101 70.7467 25.6118 70.1825 25.7529C69.598 25.8739 69.0337 25.9546 68.4694 25.9546C67.7842 25.9546 67.1393 25.8739 66.5548 25.7126C65.9704 25.5513 65.4464 25.3093 65.0232 25.0068C64.6 24.6841 64.2574 24.3009 64.0155 23.8169C63.7737 23.3531 63.6326 22.7884 63.6124 22.1229H66.051V22.1431H66.0712ZM74.0318 14.7016H75.8657V11.3943H78.2841V14.6814H80.4607V16.4763H78.2841V22.3246C78.2841 22.5868 78.3043 22.7884 78.3244 22.9901C78.3446 23.1716 78.405 23.3329 78.4655 23.4539C78.5461 23.5749 78.667 23.6758 78.8081 23.7363C78.9693 23.7968 79.1709 23.8371 79.453 23.8371C79.6142 23.8371 79.7956 23.8371 79.9569 23.8169C80.1181 23.7968 80.2995 23.7766 80.4607 23.7363V25.6118C80.1987 25.6521 79.9367 25.6723 79.6747 25.6924C79.4127 25.7328 79.1709 25.7328 78.8887 25.7328C78.2438 25.7328 77.74 25.6723 77.3571 25.5513C76.9742 25.4303 76.6719 25.2488 76.4502 25.0269C76.2285 24.7849 76.0874 24.5026 76.0068 24.1598C75.9262 23.8169 75.8859 23.3934 75.8657 22.9498V16.4964H74.0318V14.6613V14.7016ZM82.1536 14.7016H84.4309V16.1939H84.4712C84.8138 15.5486 85.2774 15.1049 85.882 14.8226C86.4866 14.5403 87.1315 14.3991 87.857 14.3991C88.7236 14.3991 89.4693 14.5403 90.1142 14.8629C90.7591 15.1654 91.2831 15.5688 91.7063 16.1133C92.1295 16.6376 92.452 17.2628 92.6535 17.9686C92.855 18.6744 92.976 19.4408 92.976 20.2273C92.976 20.9734 92.8752 21.6793 92.6938 22.3649C92.4923 23.0506 92.2101 23.6758 91.8272 24.2001C91.4443 24.7244 90.9606 25.1479 90.356 25.4706C89.7514 25.7933 89.0662 25.9546 88.2601 25.9546C87.9175 25.9546 87.5547 25.9143 87.2121 25.8538C86.8695 25.7933 86.5269 25.6924 86.2044 25.5513C85.882 25.4101 85.5797 25.2286 85.3177 25.0068C85.0355 24.7849 84.8138 24.5228 84.6324 24.2404H84.5921V29.7056H82.1737V14.7016H82.1536ZM90.5979 20.1869C90.5979 19.7029 90.5374 19.2189 90.3963 18.7551C90.2754 18.2913 90.0739 17.8879 89.8119 17.5249C89.5499 17.1619 89.2274 16.8796 88.8647 16.6578C88.4817 16.4359 88.0384 16.3351 87.5547 16.3351C86.547 16.3351 85.7812 16.6779 85.2572 17.3838C84.7534 18.0896 84.4914 19.0374 84.4914 20.2071C84.4914 20.7718 84.5518 21.2759 84.6929 21.7398C84.834 22.2036 85.0154 22.6069 85.2975 22.9498C85.5595 23.2926 85.882 23.5548 86.2649 23.7564C86.6478 23.9581 87.071 24.0589 87.5748 24.0589C88.1391 24.0589 88.5825 23.9379 88.9654 23.7161C89.3483 23.4943 89.6506 23.1918 89.9126 22.8489C90.1545 22.4859 90.3359 22.0826 90.4366 21.6188C90.5374 21.1348 90.5979 20.6709 90.5979 20.1869ZM94.8502 10.5271H97.2686V12.8059H94.8502V10.5271ZM94.8502 14.7016H97.2686V25.6521H94.8502V14.7016ZM99.425 10.5271H101.843V25.6521H99.425V10.5271ZM109.22 25.9546C108.353 25.9546 107.567 25.8134 106.882 25.5109C106.197 25.2084 105.632 24.8253 105.149 24.3211C104.685 23.8169 104.322 23.1918 104.08 22.4859C103.839 21.7801 103.698 20.9936 103.698 20.1668C103.698 19.3399 103.818 18.5736 104.08 17.8678C104.322 17.1619 104.685 16.5569 105.149 16.0326C105.612 15.5284 106.197 15.1251 106.882 14.8428C107.567 14.5604 108.353 14.3991 109.22 14.3991C110.086 14.3991 110.872 14.5403 111.557 14.8428C112.243 15.1251 112.807 15.5284 113.291 16.0326C113.754 16.5368 114.117 17.1619 114.359 17.8678C114.601 18.5736 114.742 19.3399 114.742 20.1668C114.742 21.0138 114.621 21.7801 114.359 22.4859C114.097 23.1918 113.754 23.7968 113.291 24.3211C112.827 24.8253 112.243 25.2286 111.557 25.5109C110.872 25.7933 110.106 25.9546 109.22 25.9546ZM109.22 24.0388C109.744 24.0388 110.227 23.9178 110.61 23.6959C111.013 23.4741 111.316 23.1716 111.578 22.8086C111.84 22.4456 112.021 22.0221 112.142 21.5784C112.263 21.1146 112.323 20.6508 112.323 20.1668C112.323 19.7029 112.263 19.2391 112.142 18.7753C112.021 18.3114 111.84 17.9081 111.578 17.5451C111.316 17.1821 110.993 16.8998 110.61 16.6779C110.207 16.4561 109.744 16.3351 109.22 16.3351C108.696 16.3351 108.212 16.4561 107.829 16.6779C107.426 16.8998 107.124 17.2023 106.862 17.5451C106.6 17.9081 106.418 18.3114 106.297 18.7753C106.176 19.2391 106.116 19.7029 106.116 20.1668C106.116 20.6508 106.176 21.1146 106.297 21.5784C106.418 22.0423 106.6 22.4456 106.862 22.8086C107.124 23.1716 107.446 23.4741 107.829 23.6959C108.232 23.9379 108.696 24.0388 109.22 24.0388ZM115.467 14.7016H117.301V11.3943H119.72V14.6814H121.896V16.4763H119.72V22.3246C119.72 22.5868 119.74 22.7884 119.76 22.9901C119.78 23.1716 119.84 23.3329 119.901 23.4539C119.982 23.5749 120.102 23.6758 120.244 23.7363C120.405 23.7968 120.606 23.8371 120.888 23.8371C121.05 23.8371 121.231 23.8371 121.392 23.8169C121.553 23.7968 121.735 23.7766 121.896 23.7363V25.6118C121.634 25.6521 121.372 25.6723 121.11 25.6924C120.848 25.7328 120.606 25.7328 120.324 25.7328C119.679 25.7328 119.175 25.6723 118.792 25.5513C118.41 25.4303 118.107 25.2488 117.886 25.0269C117.664 24.7849 117.523 24.5026 117.442 24.1598C117.362 23.8169 117.321 23.3934 117.301 22.9498V16.4964H115.467V14.6613V14.7016Z" fill="#fff"></path>
                        <path d="M29.9368 10.527H18.8725L15.4666 0L12.0405 10.527L0.976318 10.5068L9.92443 17.0207L6.49835 27.5477L15.4465 21.0338L24.3946 27.5477L20.9887 17.0207L29.9368 10.527Z" fill="#00B67A"></path>
                        <path d="M21.7544 19.4004L20.9886 17.0208L15.4666 21.0339L21.7544 19.4004Z" fill="#005128"></path>
                    </svg>